<svg xmlns="http://www.w3.org/2000/svg" width="760" height="390" viewBox="0 0 760 390" role="img" aria-label="Figure 1. A sample from a normal population with its mean plus or minus one SD, one SE and its 95% confidence interval, and below it the means of 2,000 samples of the same size.">
<style>
svg{--bg:#f6f7f5;--panel:#ffffff;--ink:#17202b;--ink-2:#465262;--muted:#626d7b;--rule:#d9dee3;--soft:#eceff1;--accent:#2d3e50;--sg:#12707a;--fm:#2f5f9e;--bl:#9a5a12;--leak:#b23a30;--ok:#23794f;--s1:#2a78d6;--s2:#eb6834;--code:#eef1f3;--hl:rgba(178,58,48,.09);--serif:"Literata",Georgia,"Times New Roman",serif;--sans:"IBM Plex Sans","Helvetica Neue",Arial,sans-serif;--mono:"JetBrains Mono",ui-monospace,Menlo,monospace;--sd:#12707a;--se:#9a5a12;--ci:#2f5f9e;--sitebar-h:52px;background:#ffffff}
text{font-family:"IBM Plex Sans","Helvetica Neue",Arial,sans-serif}
.t-ink{fill:var(--ink)} .t-2{fill:var(--ink-2)} .t-mu{fill:var(--muted)}
.grid{stroke:var(--rule);stroke-width:1} .axis{stroke:var(--muted);stroke-width:1}
</style>
<text x="0" y="16" class="t-ink" font-size="13.5" font-weight="700">(a) One sample of n = 25</text><path d="M24.0,128.0 L29.6,128.0 L35.1,128.0 L40.7,127.9 L46.3,127.9 L51.8,127.9 L57.4,127.9 L62.9,127.9 L68.5,127.8 L74.1,127.8 L79.6,127.7 L85.2,127.7 L90.8,127.6 L96.3,127.5 L101.9,127.4 L107.4,127.3 L113.0,127.2 L118.6,127.0 L124.1,126.8 L129.7,126.5 L135.3,126.3 L140.8,125.9 L146.4,125.6 L151.9,125.1 L157.5,124.7 L163.1,124.1 L168.6,123.5 L174.2,122.8 L179.8,122.0 L185.3,121.1 L190.9,120.1 L196.4,118.9 L202.0,117.7 L207.6,116.4 L213.1,114.9 L218.7,113.3 L224.3,111.6 L229.8,109.7 L235.4,107.7 L240.9,105.6 L246.5,103.3 L252.1,101.0 L257.6,98.5 L263.2,95.9 L268.8,93.2 L274.3,90.5 L279.9,87.6 L285.4,84.8 L291.0,81.9 L296.6,79.0 L302.1,76.2 L307.7,73.4 L313.3,70.6 L318.8,68.0 L324.4,65.5 L329.9,63.1 L335.5,60.9 L341.1,58.9 L346.6,57.2 L352.2,55.6 L357.8,54.3 L363.3,53.3 L368.9,52.6 L374.4,52.1 L380.0,52.0 L385.6,52.1 L391.1,52.6 L396.7,53.3 L402.3,54.3 L407.8,55.6 L413.4,57.2 L418.9,58.9 L424.5,60.9 L430.1,63.1 L435.6,65.5 L441.2,68.0 L446.8,70.6 L452.3,73.4 L457.9,76.2 L463.4,79.0 L469.0,81.9 L474.6,84.8 L480.1,87.6 L485.7,90.5 L491.3,93.2 L496.8,95.9 L502.4,98.5 L507.9,101.0 L513.5,103.3 L519.1,105.6 L524.6,107.7 L530.2,109.7 L535.8,111.6 L541.3,113.3 L546.9,114.9 L552.4,116.4 L558.0,117.7 L563.6,118.9 L569.1,120.1 L574.7,121.1 L580.3,122.0 L585.8,122.8 L591.4,123.5 L596.9,124.1 L602.5,124.7 L608.1,125.1 L613.6,125.6 L619.2,125.9 L624.8,126.3 L630.3,126.5 L635.9,126.8 L641.4,127.0 L647.0,127.2 L652.6,127.3 L658.1,127.4 L663.7,127.5 L669.3,127.6 L674.8,127.7 L680.4,127.7 L685.9,127.8 L691.5,127.8 L697.1,127.9 L702.6,127.9 L708.2,127.9 L713.8,127.9 L719.3,127.9 L724.9,128.0 L730.4,128.0 L736.0,128.0 L736,128 L24,128 Z" style="fill:var(--soft);stroke:var(--rule)" stroke-width="1.2"></path><text x="575.8" y="98" class="t-mu" font-size="11.5">population, SD 16</text><circle cx="383.3380176754369" cy="107.33196713216603" r="3.6" style="fill:var(--ink);opacity:0.75"></circle><circle cx="429.58301829391996" cy="114.41195259429514" r="3.6" style="fill:var(--ink);opacity:0.75"></circle><circle cx="367.88367321960385" cy="110.8742271149531" r="3.6" style="fill:var(--ink);opacity:0.75"></circle><circle cx="428.2970562221475" cy="101.40077121462673" r="3.6" style="fill:var(--ink);opacity:0.75"></circle><circle cx="323.50152924682425" cy="118.44956182315946" r="3.6" style="fill:var(--ink);opacity:0.75"></circle><circle cx="477.6956796984034" cy="90.47265593986958" r="3.6" style="fill:var(--ink);opacity:0.75"></circle><circle cx="433.9976449286378" cy="98.47328682243824" r="3.6" style="fill:var(--ink);opacity:0.75"></circle><circle cx="426.0601099096745" cy="115.70340582355857" r="3.6" style="fill:var(--ink);opacity:0.75"></circle><circle cx="346.8975913745295" cy="86.57565101608634" r="3.6" style="fill:var(--ink);opacity:0.75"></circle><circle cx="412.70437838943764" cy="83.23585147038102" r="3.6" style="fill:var(--ink);opacity:0.75"></circle><circle cx="363.2986476857768" cy="100.19976829085499" r="3.6" style="fill:var(--ink);opacity:0.75"></circle><circle cx="248.74578237338196" cy="87.88997064065188" r="3.6" style="fill:var(--ink);opacity:0.75"></circle><circle cx="259.12543745551886" cy="115.33068889193237" r="3.6" style="fill:var(--ink);opacity:0.75"></circle><circle cx="411.2593115046438" cy="95.69527347385883" r="3.6" style="fill:var(--ink);opacity:0.75"></circle><circle cx="235.85688523106626" cy="111.80244489572942" r="3.6" style="fill:var(--ink);opacity:0.75"></circle><circle cx="410.85071109848366" cy="86.91270536370575" r="3.6" style="fill:var(--ink);opacity:0.75"></circle><circle cx="328.55290880959075" cy="117.40976186655462" r="3.6" style="fill:var(--ink);opacity:0.75"></circle><circle cx="391.4012617875908" cy="115.97759341448545" r="3.6" style="fill:var(--ink);opacity:0.75"></circle><circle cx="410.5693558808838" cy="102.80685232393444" r="3.6" style="fill:var(--ink);opacity:0.75"></circle><circle cx="239.6501416476713" cy="94.95420557074249" r="3.6" style="fill:var(--ink);opacity:0.75"></circle><circle cx="390.60257311761643" cy="102.61950607877225" r="3.6" style="fill:var(--ink);opacity:0.75"></circle><circle cx="281.71485871861466" cy="99.85921672079712" r="3.6" style="fill:var(--ink);opacity:0.75"></circle><circle cx="432.95491468328146" cy="96.82981925457716" r="3.6" style="fill:var(--ink);opacity:0.75"></circle><circle cx="276.92660092311326" cy="78.41662105824798" r="3.6" style="fill:var(--ink);opacity:0.75"></circle><circle cx="259.94505708018085" cy="116.28464418463409" r="3.6" style="fill:var(--ink);opacity:0.75"></circle><line x1="358.8565258782412" x2="358.8565258782412" y1="68" y2="204" style="stroke:var(--ink)" stroke-width="1.5" stroke-dasharray="3 3"></line><line x1="285.38354056611087" x2="432.32951119037153" y1="150" y2="150" style="stroke:var(--sd)" stroke-width="2.5" stroke-linecap="round"></line><line x1="285.38354056611087" x2="285.38354056611087" y1="144" y2="156" style="stroke:var(--sd)" stroke-width="2" stroke-linecap="round"></line><line x1="432.32951119037153" x2="432.32951119037153" y1="144" y2="156" style="stroke:var(--sd)" stroke-width="2" stroke-linecap="round"></line><circle cx="358.8565258782412" cy="150" r="3.5" style="fill:var(--panel);stroke:var(--sd)" stroke-width="2"></circle><text x="442.32951119037153" y="154" style="fill:var(--sd)" font-size="12.5" font-weight="600">± 1 SD  13.2</text><line x1="344.16192881581514" x2="373.55112294066726" y1="172" y2="172" style="stroke:var(--se)" stroke-width="2.5" stroke-linecap="round"></line><line x1="344.16192881581514" x2="344.16192881581514" y1="166" y2="178" style="stroke:var(--se)" stroke-width="2" stroke-linecap="round"></line><line x1="373.55112294066726" x2="373.55112294066726" y1="166" y2="178" style="stroke:var(--se)" stroke-width="2" stroke-linecap="round"></line><circle cx="358.8565258782412" cy="172" r="3.5" style="fill:var(--panel);stroke:var(--se)" stroke-width="2"></circle><text x="383.55112294066726" y="176" style="fill:var(--se)" font-size="12.5" font-weight="600">± 1 SE  2.6</text><line x1="328.52836813739674" x2="389.18468361908566" y1="194" y2="194" style="stroke:var(--ci)" stroke-width="2.5" stroke-linecap="round"></line><line x1="328.52836813739674" x2="328.52836813739674" y1="188" y2="200" style="stroke:var(--ci)" stroke-width="2" stroke-linecap="round"></line><line x1="389.18468361908566" x2="389.18468361908566" y1="188" y2="200" style="stroke:var(--ci)" stroke-width="2" stroke-linecap="round"></line><circle cx="358.8565258782412" cy="194" r="3.5" style="fill:var(--panel);stroke:var(--ci)" stroke-width="2"></circle><text x="399.18468361908566" y="198" style="fill:var(--ci)" font-size="12.5" font-weight="600">95% CI  118.7 to 129.7</text><line x1="24" x2="736" y1="212" y2="212" class="axis"></line><line x1="57.375" x2="57.375" y1="212" y2="217" class="axis"></line><text x="57.375" y="231" text-anchor="middle" class="t-mu" font-size="12">70</text><line x1="168.625" x2="168.625" y1="212" y2="217" class="axis"></line><text x="168.625" y="231" text-anchor="middle" class="t-mu" font-size="12">90</text><line x1="279.875" x2="279.875" y1="212" y2="217" class="axis"></line><text x="279.875" y="231" text-anchor="middle" class="t-mu" font-size="12">110</text><line x1="391.125" x2="391.125" y1="212" y2="217" class="axis"></line><text x="391.125" y="231" text-anchor="middle" class="t-mu" font-size="12">130</text><line x1="502.375" x2="502.375" y1="212" y2="217" class="axis"></line><text x="502.375" y="231" text-anchor="middle" class="t-mu" font-size="12">150</text><line x1="613.625" x2="613.625" y1="212" y2="217" class="axis"></line><text x="613.625" y="231" text-anchor="middle" class="t-mu" font-size="12">170</text><line x1="724.875" x2="724.875" y1="212" y2="217" class="axis"></line><text x="724.875" y="231" text-anchor="middle" class="t-mu" font-size="12">190</text><text x="0" y="264" class="t-ink" font-size="13.5" font-weight="700">(b) Means of 2,000 samples of n = 25</text><rect x="380" y="282" width="3.8500000000000454" height="58" style="fill:var(--se);opacity:.75"></rect><rect x="384.45000000000005" y="290.4018691588785" width="3.8499999999999317" height="49.598130841121495" style="fill:var(--se);opacity:.75"></rect><rect x="388.9" y="296.6355140186916" width="3.8500000000000454" height="43.36448598130841" style="fill:var(--se);opacity:.75"></rect><rect x="393.35" y="300.4299065420561" width="3.8499999999999317" height="39.570093457943926" style="fill:var(--se);opacity:.75"></rect><rect x="397.79999999999995" y="311.5420560747664" width="3.8500000000000454" height="28.457943925233646" style="fill:var(--se);opacity:.75"></rect><rect x="402.25" y="321.02803738317755" width="3.8500000000000454" height="18.971962616822427" style="fill:var(--se);opacity:.75"></rect><rect x="406.70000000000005" y="323.7383177570093" width="3.8499999999999317" height="16.261682242990652" style="fill:var(--se);opacity:.75"></rect><rect x="411.15" y="331.86915887850466" width="3.8500000000000454" height="8.130841121495326" style="fill:var(--se);opacity:.75"></rect><rect x="415.6" y="334.85046728971963" width="3.8499999999999317" height="5.149532710280374" style="fill:var(--se);opacity:.75"></rect><rect x="420.04999999999995" y="337.01869158878503" width="3.8500000000000454" height="2.981308411214953" style="fill:var(--se);opacity:.75"></rect><rect x="424.5" y="339.1869158878505" width="3.8500000000000454" height="0.8130841121495327" style="fill:var(--se);opacity:.75"></rect><rect x="428.95000000000005" y="339.1869158878505" width="3.8499999999999317" height="0.8130841121495327" style="fill:var(--se);opacity:.75"></rect><rect x="433.4" y="339.4579439252336" width="3.8500000000000454" height="0.5420560747663551" style="fill:var(--se);opacity:.75"></rect><rect x="362.2" y="303.41121495327104" width="3.8499999999999885" height="36.58878504672897" style="fill:var(--se);opacity:.75"></rect><rect x="371.1" y="286.8785046728972" width="3.8499999999999885" height="53.12149532710281" style="fill:var(--se);opacity:.75"></rect><rect x="366.65" y="295.8224299065421" width="3.8500000000000454" height="44.177570093457945" style="fill:var(--se);opacity:.75"></rect><rect x="353.3" y="321.5700934579439" width="3.8499999999999885" height="18.429906542056074" style="fill:var(--se);opacity:.75"></rect><rect x="375.55" y="290.13084112149534" width="3.8499999999999885" height="49.86915887850467" style="fill:var(--se);opacity:.75"></rect><rect x="357.75" y="312.0841121495327" width="3.8499999999999885" height="27.91588785046729" style="fill:var(--se);opacity:.75"></rect><rect x="344.4" y="330.2429906542056" width="3.8500000000000454" height="9.757009345794392" style="fill:var(--se);opacity:.75"></rect><rect x="348.85" y="324.2803738317757" width="3.8499999999999885" height="15.719626168224298" style="fill:var(--se);opacity:.75"></rect><rect x="331.05" y="337.8317757009346" width="3.8499999999999885" height="2.1682242990654204" style="fill:var(--se);opacity:.75"></rect><rect x="335.5" y="335.66355140186914" width="3.8499999999999885" height="4.336448598130841" style="fill:var(--se);opacity:.75"></rect><rect x="339.95" y="333.76635514018693" width="3.8499999999999885" height="6.233644859813084" style="fill:var(--se);opacity:.75"></rect><rect x="322.15" y="339.4579439252336" width="3.8500000000000454" height="0.5420560747663551" style="fill:var(--se);opacity:.75"></rect><rect x="317.7" y="339.7289719626168" width="3.8499999999999885" height="0.27102803738317754" style="fill:var(--se);opacity:.75"></rect><rect x="313.25" y="339.7289719626168" width="3.8499999999999885" height="0.27102803738317754" style="fill:var(--se);opacity:.75"></rect><text x="461.20000000000005" y="320" class="t-2" font-size="12">SD of these means 3.2</text><text x="461.20000000000005" y="335" class="t-mu" font-size="11.5">σ/</text><path d="M472.43,332.34L473.74,331.39L475.53,335.19L478.27,324.88L478.98,324.88L478.98,325.59L476.00,336.73L475.29,336.73L473.38,332.34L472.79,332.70Z" class="t-mu"></path><text x="478.97979175567633" y="335" class="t-mu" font-size="11.5">n</text><rect x="478.28979175567633" y="324.88" width="7.6841243743896435" height="0.69" class="t-mu"></rect><text x="485.97391613006596" y="335" class="t-mu" font-size="11.5">&#160;= 3.2</text><line x1="380" x2="380" y1="274" y2="340" style="stroke:var(--muted)" stroke-width="1" stroke-dasharray="2 3"></line><line x1="24" x2="736" y1="340" y2="340" class="axis"></line><line x1="57.375" x2="57.375" y1="340" y2="345" class="axis"></line><text x="57.375" y="359" text-anchor="middle" class="t-mu" font-size="12">70</text><line x1="168.625" x2="168.625" y1="340" y2="345" class="axis"></line><text x="168.625" y="359" text-anchor="middle" class="t-mu" font-size="12">90</text><line x1="279.875" x2="279.875" y1="340" y2="345" class="axis"></line><text x="279.875" y="359" text-anchor="middle" class="t-mu" font-size="12">110</text><line x1="391.125" x2="391.125" y1="340" y2="345" class="axis"></line><text x="391.125" y="359" text-anchor="middle" class="t-mu" font-size="12">130</text><line x1="502.375" x2="502.375" y1="340" y2="345" class="axis"></line><text x="502.375" y="359" text-anchor="middle" class="t-mu" font-size="12">150</text><line x1="613.625" x2="613.625" y1="340" y2="345" class="axis"></line><text x="613.625" y="359" text-anchor="middle" class="t-mu" font-size="12">170</text><line x1="724.875" x2="724.875" y1="340" y2="345" class="axis"></line><text x="724.875" y="359" text-anchor="middle" class="t-mu" font-size="12">190</text><text x="380" y="378" text-anchor="middle" class="t-mu" font-size="12">Systolic blood pressure (mmHg)</text>
</svg>
